<?xml version="1.0" standalone="no"?><!DOCTYPE svg PUBLIC "-//W3C//DTD SVG 1.1//EN" "http://www.w3.org/Graphics/SVG/1.1/DTD/svg11.dtd"><svg t="1584228526994" class="icon" viewBox="0 0 1024 1024" version="1.1" xmlns="http://www.w3.org/2000/svg" p-id="4688" xmlns:xlink="http://www.w3.org/1999/xlink" width="200" height="200"><defs><style type="text/css"></style></defs><path d="M955.904 923.648l-149.504-153.6c70.656-76.8 111.104-177.152 111.104-279.552 0-224.256-181.248-405.504-405.504-405.504S106.496 266.752 106.496 490.496 288.256 896 512 896c64 0 125.952-14.848 183.296-42.496 10.752-4.096 14.848-16.896 8.704-27.648-4.096-10.752-19.456-14.848-27.648-8.704-51.2 25.6-106.496 38.4-164.352 38.4-200.704 0-362.496-162.304-362.496-362.496S311.296 128 512 128s362.496 162.304 362.496 362.496c0 100.352-42.496 196.096-115.2 264.704-8.704 8.704-8.704 21.504 0 29.696 2.048 2.048 4.096 4.096 8.704 4.096l157.696 162.304c4.096 4.096 10.752 6.656 14.848 6.656 6.656 0 10.752-2.048 14.848-6.656 6.656-6.144 8.704-18.944 0.512-27.648z" p-id="4689" fill="#272727"></path></svg>